<svg width="13" height="12" viewBox="0 0 13 12" fill="none" xmlns="http://www.w3.org/2000/svg">
<path d="M5.91021 11.9047L5.37369 11.3682C5.24671 11.2412 5.24671 11.0353 5.37369 10.9083L9.57748 6.70457L0.325183 6.70456C0.145601 6.70456 4.7567e-07 6.55896 4.9137e-07 6.37938L5.57703e-07 5.62062C5.73402e-07 5.44104 0.145601 5.29544 0.325183 5.29544L9.57748 5.29544L5.37369 1.09165C5.24671 0.964667 5.24671 0.758771 5.37369 0.631761L5.91021 0.0952382C6.0372 -0.0317454 6.24309 -0.0317454 6.3701 0.0952383L12.0449 5.77005C12.1719 5.89703 12.1719 6.10292 12.0449 6.22994L6.37007 11.9047C6.24309 12.0318 6.0372 12.0318 5.91021 11.9047Z" fill="#203492"/>
</svg>
